# xmcd CD database file
#
# Track frame offsets:
#	150
#	12055
#	27465
#	44997
#	59644
#	77249
#	97753
#	111954
#	131223
#	147877
#	170170
#	186427
#	198584
#
# Disc length: 2855 seconds
#
# Revision: 0
# Processed by: cddbd v1.4PL0 Copyright (c) Steve Scherf et al.
# Submitted via: CDex 1.50beta10
#
DISCID=c60b250d
DTITLE=Texas Eastside Kings - Texas Eastside Kings
DYEAR=2001
DGENRE=Blues
TTITLE0=Cut You Loose
TTITLE1=I Found Someone
TTITLE2=Fraulein
TTITLE3=Beard Is White
TTITLE4=You Hurt Me
TTITLE5=Tell Me
TTITLE6=Mrs. Dee
TTITLE7=Hoochie Mamma
TTITLE8=Starnded
TTITLE9=Been a Long Time
TTITLE10=Love of Mine
TTITLE11=You Hurt Me More
TTITLE12=Kuyk's Back
EXTD=YEAR: 2001
EXTT0=
EXTT1=
EXTT2=
EXTT3=
EXTT4=
EXTT5=
EXTT6=
EXTT7=
EXTT8=
EXTT9=
EXTT10=
EXTT11=
EXTT12=
PLAYORDER=
